<?xml version="1.0" encoding="utf-8" standalone="no"?>
<!DOCTYPE svg PUBLIC "-//W3C//DTD SVG 1.1//EN"
  "http://www.w3.org/Graphics/SVG/1.1/DTD/svg11.dtd">
<svg xmlns:xlink="http://www.w3.org/1999/xlink" width="612pt" height="324pt" viewBox="0 0 612 324" xmlns="http://www.w3.org/2000/svg" version="1.1">
 <metadata>
  <rdf:RDF xmlns:dc="http://purl.org/dc/elements/1.1/" xmlns:cc="http://creativecommons.org/ns#" xmlns:rdf="http://www.w3.org/1999/02/22-rdf-syntax-ns#">
   <cc:Work>
    <dc:type rdf:resource="http://purl.org/dc/dcmitype/StillImage"/>
    <dc:date>2026-06-12T20:03:19.478538</dc:date>
    <dc:format>image/svg+xml</dc:format>
    <dc:creator>
     <cc:Agent>
      <dc:title>Matplotlib v3.11.0, https://matplotlib.org/</dc:title>
     </cc:Agent>
    </dc:creator>
   </cc:Work>
  </rdf:RDF>
 </metadata>
 <defs>
  <style type="text/css">*{stroke-linejoin: round; stroke-linecap: butt}</style>
 </defs>
 <g id="figure_1">
  <g id="patch_1">
   <path d="M 0 324 
L 612 324 
L 612 0 
L 0 0 
z
" style="fill: #ffffff"/>
  </g>
  <g id="axes_1">
   <g id="patch_2">
    <path d="M 42.521953 283.058047 
L 601.2 283.058047 
L 601.2 37.722148 
L 42.521953 37.722148 
z
" style="fill: #ffffff"/>
   </g>
   <g id="FillBetweenPolyCollection_1">
    <defs>
     <path id="m0df72b9789" d="M 67.91641 -275.12622 
L 67.91641 -52.093585 
L 124.348536 -74.059881 
L 180.780662 -87.538235 
L 237.212788 -94.547697 
L 293.644914 -98.914679 
L 350.07704 -104.762963 
L 406.509165 -109.365072 
L 462.941291 -113.445839 
L 519.373417 -115.402591 
L 575.805543 -121.129682 
L 575.805543 -247.985961 
L 575.805543 -247.985961 
L 519.373417 -246.121897 
L 462.941291 -252.26383 
L 406.509165 -253.872968 
L 350.07704 -253.703973 
L 293.644914 -259.08517 
L 237.212788 -262.401312 
L 180.780662 -273.534873 
L 124.348536 -271.994793 
L 67.91641 -275.12622 
z
" style="stroke: #1565c0; stroke-opacity: 0.25"/>
    </defs>
    <g clip-path="url(#p041778dcc2)">
     <use xlink:href="#m0df72b9789" x="0" y="324" style="fill: #1565c0; fill-opacity: 0.25; stroke: #1565c0; stroke-opacity: 0.25"/>
    </g>
   </g>
   <g id="matplotlib.axis_1">
    <g id="xtick_1">
     <g id="line2d_1">
      <defs>
       <path id="m5c0d281a55" d="M 0 0 
L 0 3.5 
" style="stroke: #000000; stroke-width: 0.8"/>
      </defs>
      <g>
       <use xlink:href="#m5c0d281a55" x="67.91641" y="283.058047" style="stroke: #000000; stroke-width: 0.8"/>
      </g>
     </g>
     <g id="text_1">
      <!-- 0~10 -->
      <g transform="translate(57.916293 296.856387) scale(0.085 -0.085)">
       <defs>
        <path id="MalgunGothic-13" d="M 278 2206 
Q 278 3425 675 4050 
Q 1072 4675 1819 4675 
Q 3253 4675 3253 2319 
Q 3253 1156 2854 539 
Q 2456 -78 1716 -78 
Q 1016 -78 647 520 
Q 278 1119 278 2206 
z
M 784 2231 
Q 784 344 1769 344 
Q 2747 344 2747 2259 
Q 2747 4250 1794 4250 
Q 784 4250 784 2231 
z
" transform="scale(0.015625)"/>
        <path id="MalgunGothic-61" d="M 3819 2400 
Q 3794 1925 3559 1670 
Q 3325 1416 2925 1416 
Q 2572 1416 2075 1772 
Q 1766 1988 1563 1988 
Q 1106 1988 1094 1419 
L 675 1419 
Q 691 1888 933 2145 
Q 1175 2403 1566 2403 
Q 1903 2403 2319 2116 
Q 2747 1825 2953 1825 
Q 3153 1825 3273 1983 
Q 3394 2141 3400 2400 
L 3819 2400 
z
" transform="scale(0.015625)"/>
        <path id="MalgunGothic-14" d="M 2231 0 
L 1734 0 
L 1734 3972 
Q 1591 3828 1266 3661 
Q 941 3494 672 3428 
L 672 3959 
Q 1016 4056 1409 4275 
Q 1803 4494 2031 4700 
L 2231 4700 
L 2231 0 
z
" transform="scale(0.015625)"/>
       </defs>
       <use xlink:href="#MalgunGothic-13"/>
       <use xlink:href="#MalgunGothic-61" transform="translate(55.078125 0)"/>
       <use xlink:href="#MalgunGothic-14" transform="translate(125.140625 0)"/>
       <use xlink:href="#MalgunGothic-13" transform="translate(180.21875 0)"/>
      </g>
     </g>
    </g>
    <g id="xtick_2">
     <g id="line2d_2">
      <g>
       <use xlink:href="#m5c0d281a55" x="124.348536" y="283.058047" style="stroke: #000000; stroke-width: 0.8"/>
      </g>
     </g>
     <g id="text_2">
      <!-- 10~20 -->
      <g transform="translate(112.007598 296.856387) scale(0.085 -0.085)">
       <defs>
        <path id="MalgunGothic-15" d="M 2519 3372 
Q 2519 3784 2275 4018 
Q 2031 4253 1628 4253 
Q 1341 4253 1053 4104 
Q 766 3956 534 3697 
L 534 4234 
Q 981 4675 1691 4675 
Q 2281 4675 2642 4334 
Q 3003 3994 3003 3416 
Q 3003 2919 2772 2545 
Q 2541 2172 1984 1775 
Q 1459 1406 1254 1215 
Q 1050 1025 967 854 
Q 884 684 884 450 
L 3116 450 
L 3116 0 
L 356 0 
L 356 225 
Q 356 603 461 870 
Q 566 1138 811 1392 
Q 1056 1647 1597 2022 
Q 2091 2363 2305 2670 
Q 2519 2978 2519 3372 
z
" transform="scale(0.015625)"/>
       </defs>
       <use xlink:href="#MalgunGothic-14"/>
       <use xlink:href="#MalgunGothic-13" transform="translate(55.078125 0)"/>
       <use xlink:href="#MalgunGothic-61" transform="translate(110.15625 0)"/>
       <use xlink:href="#MalgunGothic-15" transform="translate(180.21875 0)"/>
       <use xlink:href="#MalgunGothic-13" transform="translate(235.296875 0)"/>
      </g>
     </g>
    </g>
    <g id="xtick_3">
     <g id="line2d_3">
      <g>
       <use xlink:href="#m5c0d281a55" x="180.780662" y="283.058047" style="stroke: #000000; stroke-width: 0.8"/>
      </g>
     </g>
     <g id="text_3">
      <!-- 20~30 -->
      <g transform="translate(168.439724 296.856387) scale(0.085 -0.085)">
       <defs>
        <path id="MalgunGothic-16" d="M 416 719 
Q 891 344 1478 344 
Q 1959 344 2254 587 
Q 2550 831 2550 1247 
Q 2550 2169 1253 2169 
L 872 2169 
L 872 2591 
L 1234 2591 
Q 2388 2591 2388 3453 
Q 2388 4250 1509 4250 
Q 1022 4250 594 3916 
L 594 4413 
Q 1031 4675 1634 4675 
Q 2184 4675 2539 4372 
Q 2894 4069 2894 3581 
Q 2894 2678 1972 2409 
L 1972 2400 
Q 2469 2356 2764 2053 
Q 3059 1750 3059 1300 
Q 3059 672 2604 297 
Q 2150 -78 1450 -78 
Q 806 -78 416 169 
L 416 719 
z
" transform="scale(0.015625)"/>
       </defs>
       <use xlink:href="#MalgunGothic-15"/>
       <use xlink:href="#MalgunGothic-13" transform="translate(55.078125 0)"/>
       <use xlink:href="#MalgunGothic-61" transform="translate(110.15625 0)"/>
       <use xlink:href="#MalgunGothic-16" transform="translate(180.21875 0)"/>
       <use xlink:href="#MalgunGothic-13" transform="translate(235.296875 0)"/>
      </g>
     </g>
    </g>
    <g id="xtick_4">
     <g id="line2d_4">
      <g>
       <use xlink:href="#m5c0d281a55" x="237.212788" y="283.058047" style="stroke: #000000; stroke-width: 0.8"/>
      </g>
     </g>
     <g id="text_4">
      <!-- 30~40 -->
      <g transform="translate(224.87185 296.856387) scale(0.085 -0.085)">
       <defs>
        <path id="MalgunGothic-17" d="M 2703 4600 
L 2703 1563 
L 3309 1563 
L 3309 1113 
L 2703 1113 
L 2703 0 
L 2213 0 
L 2213 1113 
L 50 1113 
L 50 1534 
Q 728 2297 1295 3109 
Q 1863 3922 2172 4600 
L 2703 4600 
z
M 625 1563 
L 2213 1563 
L 2213 3831 
Q 1613 2788 959 1981 
L 625 1563 
z
" transform="scale(0.015625)"/>
       </defs>
       <use xlink:href="#MalgunGothic-16"/>
       <use xlink:href="#MalgunGothic-13" transform="translate(55.078125 0)"/>
       <use xlink:href="#MalgunGothic-61" transform="translate(110.15625 0)"/>
       <use xlink:href="#MalgunGothic-17" transform="translate(180.21875 0)"/>
       <use xlink:href="#MalgunGothic-13" transform="translate(235.296875 0)"/>
      </g>
     </g>
    </g>
    <g id="xtick_5">
     <g id="line2d_5">
      <g>
       <use xlink:href="#m5c0d281a55" x="293.644914" y="283.058047" style="stroke: #000000; stroke-width: 0.8"/>
      </g>
     </g>
     <g id="text_5">
      <!-- 40~50 -->
      <g transform="translate(281.303976 296.856387) scale(0.085 -0.085)">
       <defs>
        <path id="MalgunGothic-18" d="M 3072 1403 
Q 3072 722 2636 322 
Q 2200 -78 1469 -78 
Q 828 -78 516 113 
L 516 650 
Q 994 344 1475 344 
Q 1969 344 2270 630 
Q 2572 916 2572 1372 
Q 2572 1838 2265 2092 
Q 1959 2347 1381 2347 
Q 994 2347 603 2300 
L 759 4600 
L 2869 4600 
L 2869 4147 
L 1206 4147 
L 1106 2763 
Q 1347 2784 1547 2784 
Q 2263 2784 2667 2414 
Q 3072 2044 3072 1403 
z
" transform="scale(0.015625)"/>
       </defs>
       <use xlink:href="#MalgunGothic-17"/>
       <use xlink:href="#MalgunGothic-13" transform="translate(55.078125 0)"/>
       <use xlink:href="#MalgunGothic-61" transform="translate(110.15625 0)"/>
       <use xlink:href="#MalgunGothic-18" transform="translate(180.21875 0)"/>
       <use xlink:href="#MalgunGothic-13" transform="translate(235.296875 0)"/>
      </g>
     </g>
    </g>
    <g id="xtick_6">
     <g id="line2d_6">
      <g>
       <use xlink:href="#m5c0d281a55" x="350.07704" y="283.058047" style="stroke: #000000; stroke-width: 0.8"/>
      </g>
     </g>
     <g id="text_6">
      <!-- 50~60 -->
      <g transform="translate(337.736102 296.856387) scale(0.085 -0.085)">
       <defs>
        <path id="MalgunGothic-19" d="M 2981 4069 
Q 2619 4250 2228 4250 
Q 1591 4250 1228 3689 
Q 866 3128 869 2213 
L 884 2213 
Q 1203 2872 1938 2872 
Q 2547 2872 2903 2478 
Q 3259 2084 3259 1450 
Q 3259 797 2857 359 
Q 2456 -78 1825 -78 
Q 1116 -78 736 478 
Q 356 1034 356 2019 
Q 356 3181 847 3928 
Q 1338 4675 2222 4675 
Q 2700 4675 2981 4544 
L 2981 4069 
z
M 906 1506 
Q 906 1022 1165 683 
Q 1425 344 1844 344 
Q 2247 344 2498 645 
Q 2750 947 2750 1388 
Q 2750 1888 2509 2167 
Q 2269 2447 1838 2447 
Q 1444 2447 1175 2173 
Q 906 1900 906 1506 
z
" transform="scale(0.015625)"/>
       </defs>
       <use xlink:href="#MalgunGothic-18"/>
       <use xlink:href="#MalgunGothic-13" transform="translate(55.078125 0)"/>
       <use xlink:href="#MalgunGothic-61" transform="translate(110.15625 0)"/>
       <use xlink:href="#MalgunGothic-19" transform="translate(180.21875 0)"/>
       <use xlink:href="#MalgunGothic-13" transform="translate(235.296875 0)"/>
      </g>
     </g>
    </g>
    <g id="xtick_7">
     <g id="line2d_7">
      <g>
       <use xlink:href="#m5c0d281a55" x="406.509165" y="283.058047" style="stroke: #000000; stroke-width: 0.8"/>
      </g>
     </g>
     <g id="text_7">
      <!-- 60~70 -->
      <g transform="translate(394.168228 296.856387) scale(0.085 -0.085)">
       <defs>
        <path id="MalgunGothic-1a" d="M 3213 4297 
Q 2478 3006 2064 1918 
Q 1650 831 1550 0 
L 1009 0 
Q 1084 531 1290 1176 
Q 1497 1822 1815 2537 
Q 2134 3253 2631 4147 
L 291 4147 
L 291 4600 
L 3213 4600 
L 3213 4297 
z
" transform="scale(0.015625)"/>
       </defs>
       <use xlink:href="#MalgunGothic-19"/>
       <use xlink:href="#MalgunGothic-13" transform="translate(55.078125 0)"/>
       <use xlink:href="#MalgunGothic-61" transform="translate(110.15625 0)"/>
       <use xlink:href="#MalgunGothic-1a" transform="translate(180.21875 0)"/>
       <use xlink:href="#MalgunGothic-13" transform="translate(235.296875 0)"/>
      </g>
     </g>
    </g>
    <g id="xtick_8">
     <g id="line2d_8">
      <g>
       <use xlink:href="#m5c0d281a55" x="462.941291" y="283.058047" style="stroke: #000000; stroke-width: 0.8"/>
      </g>
     </g>
     <g id="text_8">
      <!-- 70~80 -->
      <g transform="translate(450.600354 296.856387) scale(0.085 -0.085)">
       <defs>
        <path id="MalgunGothic-1b" d="M 303 1281 
Q 303 1669 539 2011 
Q 775 2353 1153 2494 
Q 856 2647 675 2915 
Q 494 3184 494 3500 
Q 494 3828 659 4098 
Q 825 4369 1122 4522 
Q 1419 4675 1778 4675 
Q 2334 4675 2700 4342 
Q 3066 4009 3066 3500 
Q 3066 3181 2881 2914 
Q 2697 2647 2413 2494 
Q 2788 2350 3022 2009 
Q 3256 1669 3256 1281 
Q 3256 672 2843 297 
Q 2431 -78 1778 -78 
Q 1131 -78 717 301 
Q 303 681 303 1281 
z
M 809 1328 
Q 809 878 1081 611 
Q 1353 344 1781 344 
Q 2206 344 2482 619 
Q 2759 894 2759 1328 
Q 2759 1731 2482 2011 
Q 2206 2291 1781 2291 
Q 1372 2291 1090 2020 
Q 809 1750 809 1328 
z
M 1003 3459 
Q 1003 3125 1234 2900 
Q 1466 2675 1781 2675 
Q 2097 2675 2330 2900 
Q 2563 3125 2563 3459 
Q 2563 3803 2341 4026 
Q 2119 4250 1781 4250 
Q 1450 4250 1226 4029 
Q 1003 3809 1003 3459 
z
" transform="scale(0.015625)"/>
       </defs>
       <use xlink:href="#MalgunGothic-1a"/>
       <use xlink:href="#MalgunGothic-13" transform="translate(55.078125 0)"/>
       <use xlink:href="#MalgunGothic-61" transform="translate(110.15625 0)"/>
       <use xlink:href="#MalgunGothic-1b" transform="translate(180.21875 0)"/>
       <use xlink:href="#MalgunGothic-13" transform="translate(235.296875 0)"/>
      </g>
     </g>
    </g>
    <g id="xtick_9">
     <g id="line2d_9">
      <g>
       <use xlink:href="#m5c0d281a55" x="519.373417" y="283.058047" style="stroke: #000000; stroke-width: 0.8"/>
      </g>
     </g>
     <g id="text_9">
      <!-- 80~90 -->
      <g transform="translate(507.03248 296.856387) scale(0.085 -0.085)">
       <defs>
        <path id="MalgunGothic-1c" d="M 556 563 
Q 941 344 1366 344 
Q 1994 344 2347 855 
Q 2700 1366 2700 2313 
Q 2694 2306 2688 2313 
Q 2388 1713 1653 1713 
Q 1059 1713 682 2120 
Q 306 2528 306 3144 
Q 306 3806 711 4240 
Q 1116 4675 1772 4675 
Q 2466 4675 2833 4131 
Q 3200 3588 3200 2578 
Q 3200 1319 2717 620 
Q 2234 -78 1344 -78 
Q 881 -78 556 78 
L 556 563 
z
M 813 3219 
Q 813 2741 1063 2450 
Q 1313 2159 1759 2159 
Q 2147 2159 2406 2417 
Q 2666 2675 2666 3047 
Q 2666 3556 2411 3903 
Q 2156 4250 1725 4250 
Q 1322 4250 1067 3948 
Q 813 3647 813 3219 
z
" transform="scale(0.015625)"/>
       </defs>
       <use xlink:href="#MalgunGothic-1b"/>
       <use xlink:href="#MalgunGothic-13" transform="translate(55.078125 0)"/>
       <use xlink:href="#MalgunGothic-61" transform="translate(110.15625 0)"/>
       <use xlink:href="#MalgunGothic-1c" transform="translate(180.21875 0)"/>
       <use xlink:href="#MalgunGothic-13" transform="translate(235.296875 0)"/>
      </g>
     </g>
    </g>
    <g id="xtick_10">
     <g id="line2d_10">
      <g>
       <use xlink:href="#m5c0d281a55" x="575.805543" y="283.058047" style="stroke: #000000; stroke-width: 0.8"/>
      </g>
     </g>
     <g id="text_10">
      <!-- 90~100 -->
      <g transform="translate(561.123786 296.856387) scale(0.085 -0.085)">
       <use xlink:href="#MalgunGothic-1c"/>
       <use xlink:href="#MalgunGothic-13" transform="translate(55.078125 0)"/>
       <use xlink:href="#MalgunGothic-61" transform="translate(110.15625 0)"/>
       <use xlink:href="#MalgunGothic-14" transform="translate(180.21875 0)"/>
       <use xlink:href="#MalgunGothic-13" transform="translate(235.296875 0)"/>
       <use xlink:href="#MalgunGothic-13" transform="translate(290.375 0)"/>
      </g>
     </g>
    </g>
    <g id="text_11">
     <!-- 결합 점수 구간 (KOSPI200 내 백분위) -->
     <g transform="translate(238.262539 311.229922) scale(0.1 -0.1)">
      <defs>
       <path id="MalgunGothic-2bc" d="M 3647 2931 
L 3647 3334 
L 4947 3334 
L 4947 4172 
L 3744 4172 
L 3744 4581 
L 4947 4581 
L 4947 5466 
L 5416 5466 
L 5416 2328 
L 4947 2328 
L 4947 2931 
L 3647 2931 
z
M 872 2053 
L 550 2425 
Q 1600 2778 2237 3404 
Q 2875 4031 3066 4800 
L 941 4800 
L 941 5209 
L 3609 5209 
Q 3503 4163 2790 3344 
Q 2078 2525 872 2053 
z
M 1722 -494 
L 1722 984 
L 4947 984 
L 4947 1600 
L 1722 1600 
L 1722 1997 
L 5416 1997 
L 5416 588 
L 2188 588 
L 2188 -91 
L 5581 -91 
L 5581 -494 
L 1722 -494 
z
" transform="scale(0.015625)"/>
       <path id="MalgunGothic-b22" d="M 1997 5550 
L 2463 5550 
L 2463 4838 
L 4013 4838 
L 4013 4428 
L 447 4428 
L 447 4838 
L 1997 4838 
L 1997 5550 
z
M 5125 3303 
L 5125 1941 
L 4659 1941 
L 4659 5466 
L 5125 5466 
L 5125 3719 
L 5972 3719 
L 5972 3303 
L 5125 3303 
z
M 2241 1991 
Q 1550 1991 1153 2294 
Q 756 2597 756 3059 
Q 756 3516 1157 3822 
Q 1559 4128 2247 4128 
Q 2934 4128 3336 3822 
Q 3738 3516 3738 3059 
Q 3738 2603 3336 2297 
Q 2934 1991 2241 1991 
z
M 2247 3731 
Q 1766 3731 1491 3539 
Q 1216 3347 1216 3059 
Q 1216 2763 1494 2575 
Q 1772 2388 2247 2388 
Q 2722 2388 3000 2575 
Q 3278 2763 3278 3059 
Q 3278 3347 3003 3539 
Q 2728 3731 2247 3731 
z
M 1416 -500 
L 1416 1606 
L 1875 1606 
L 1875 916 
L 4666 916 
L 4666 1606 
L 5125 1606 
L 5125 -500 
L 1416 -500 
z
M 4666 513 
L 1875 513 
L 1875 -91 
L 4666 -91 
L 4666 513 
z
" transform="scale(0.015625)"/>
       <path id="MalgunGothic-3" transform="scale(0.015625)"/>
       <path id="MalgunGothic-8ba" d="M 4884 2113 
L 4884 3675 
L 3444 3675 
L 3444 4097 
L 4884 4097 
L 4884 5466 
L 5350 5466 
L 5350 2113 
L 4884 2113 
z
M 3653 2328 
Q 3244 2550 2831 2950 
Q 2419 3350 2253 3700 
Q 2075 3303 1659 2858 
Q 1244 2413 819 2175 
L 488 2497 
Q 1134 2806 1571 3393 
Q 2009 3981 2009 4628 
L 2009 4781 
L 684 4781 
L 684 5197 
L 3788 5197 
L 3788 4781 
L 2463 4781 
L 2463 4628 
Q 2463 4025 2916 3472 
Q 3369 2919 3969 2669 
L 3653 2328 
z
M 1625 -397 
L 1625 1766 
L 5350 1766 
L 5350 -397 
L 1625 -397 
z
M 4891 1356 
L 2088 1356 
L 2088 13 
L 4891 13 
L 4891 1356 
z
" transform="scale(0.015625)"/>
       <path id="MalgunGothic-739" d="M 5491 2994 
Q 4750 3097 4078 3498 
Q 3406 3900 3200 4275 
Q 2975 3891 2309 3491 
Q 1644 3091 922 2956 
L 634 3347 
Q 1559 3450 2261 3942 
Q 2963 4434 2963 5013 
L 2963 5275 
L 3431 5275 
L 3431 5013 
Q 3431 4431 4118 3948 
Q 4806 3466 5766 3378 
L 5491 2994 
z
M 3431 1838 
L 3431 -563 
L 2963 -563 
L 2963 1838 
L 403 1838 
L 403 2253 
L 5997 2253 
L 5997 1838 
L 3431 1838 
z
" transform="scale(0.015625)"/>
       <path id="MalgunGothic-2f1" d="M 2913 -563 
L 2913 2228 
L 403 2228 
L 403 2650 
L 4594 2650 
Q 4666 3391 4666 4788 
L 1313 4788 
L 1313 5203 
L 5131 5203 
Q 5131 3656 5044 2650 
L 5997 2650 
L 5997 2228 
L 3378 2228 
L 3378 -563 
L 2913 -563 
z
" transform="scale(0.015625)"/>
       <path id="MalgunGothic-27e" d="M 5125 3122 
L 5125 1063 
L 4659 1063 
L 4659 5466 
L 5125 5466 
L 5125 3541 
L 6034 3541 
L 6034 3122 
L 5125 3122 
z
M 3513 5100 
Q 3403 3872 2556 3011 
Q 1709 2150 794 1800 
L 469 2163 
Q 1344 2450 2087 3172 
Q 2831 3894 2963 4678 
L 831 4678 
L 831 5100 
L 3513 5100 
z
M 1459 -325 
L 1459 1509 
L 1925 1509 
L 1925 97 
L 5294 97 
L 5294 -325 
L 1459 -325 
z
" transform="scale(0.015625)"/>
       <path id="MalgunGothic-b" d="M 1438 -1044 
Q 447 88 447 1753 
Q 447 3431 1438 4600 
L 1888 4600 
Q 878 3372 878 1759 
Q 878 153 1881 -1044 
L 1438 -1044 
z
" transform="scale(0.015625)"/>
       <path id="MalgunGothic-2e" d="M 3769 0 
L 3053 0 
L 1250 2109 
Q 1150 2225 1128 2263 
L 1113 2263 
L 1113 0 
L 609 0 
L 609 4600 
L 1113 4600 
L 1113 2438 
L 1128 2438 
Q 1175 2509 1250 2588 
L 3000 4600 
L 3628 4600 
L 1634 2394 
L 3769 0 
z
" transform="scale(0.015625)"/>
       <path id="MalgunGothic-32" d="M 306 2244 
Q 306 3350 903 4012 
Q 1500 4675 2531 4675 
Q 3481 4675 4062 4029 
Q 4644 3384 4644 2359 
Q 4644 1256 4056 589 
Q 3469 -78 2456 -78 
Q 1488 -78 897 570 
Q 306 1219 306 2244 
z
M 838 2291 
Q 838 1456 1278 918 
Q 1719 381 2453 381 
Q 3238 381 3677 889 
Q 4116 1397 4116 2284 
Q 4116 3188 3692 3700 
Q 3269 4213 2494 4213 
Q 1741 4213 1289 3670 
Q 838 3128 838 2291 
z
" transform="scale(0.015625)"/>
       <path id="MalgunGothic-36" d="M 394 797 
Q 606 613 964 500 
Q 1322 388 1625 388 
Q 2628 388 2628 1116 
Q 2628 1325 2523 1484 
Q 2419 1644 2250 1756 
Q 2081 1869 1547 2144 
Q 903 2475 651 2754 
Q 400 3034 400 3456 
Q 400 4019 858 4347 
Q 1316 4675 1988 4675 
Q 2669 4675 2963 4513 
L 2963 3928 
Q 2563 4206 1922 4206 
Q 1484 4206 1207 4018 
Q 931 3831 931 3500 
Q 931 3200 1126 3011 
Q 1322 2822 1938 2522 
Q 2656 2163 2906 1844 
Q 3156 1525 3156 1153 
Q 3156 556 2725 239 
Q 2294 -78 1531 -78 
Q 1291 -78 927 -1 
Q 563 75 394 188 
L 394 797 
z
" transform="scale(0.015625)"/>
       <path id="MalgunGothic-33" d="M 1113 1747 
L 1113 0 
L 609 0 
L 609 4600 
L 1850 4600 
Q 2575 4600 2979 4240 
Q 3384 3881 3384 3231 
Q 3384 2559 2909 2140 
Q 2434 1722 1728 1747 
L 1113 1747 
z
M 1113 4131 
L 1113 2219 
L 1691 2219 
Q 2256 2219 2554 2475 
Q 2853 2731 2853 3206 
Q 2853 4131 1759 4131 
L 1113 4131 
z
" transform="scale(0.015625)"/>
       <path id="MalgunGothic-2c" d="M 1116 0 
L 613 0 
L 613 4600 
L 1116 4600 
L 1116 0 
z
" transform="scale(0.015625)"/>
       <path id="MalgunGothic-3b0" d="M 5050 -563 
L 5050 2431 
L 4256 2431 
L 4256 -378 
L 3788 -378 
L 3788 5344 
L 4256 5344 
L 4256 2847 
L 5050 2847 
L 5050 5466 
L 5516 5466 
L 5516 -563 
L 5050 -563 
z
M 3444 1259 
Q 2953 1159 878 1159 
L 878 4972 
L 1344 4972 
L 1344 1575 
Q 2725 1575 3397 1663 
L 3444 1259 
z
" transform="scale(0.015625)"/>
       <path id="MalgunGothic-612" d="M 5056 2028 
L 5056 3438 
L 4359 3438 
L 4359 2028 
L 3897 2028 
L 3897 5344 
L 4359 5344 
L 4359 3859 
L 5056 3859 
L 5056 5466 
L 5522 5466 
L 5522 2028 
L 5056 2028 
z
M 763 2363 
L 763 5209 
L 1222 5209 
L 1222 4103 
L 2772 4103 
L 2772 5209 
L 3231 5209 
L 3231 2363 
L 763 2363 
z
M 2772 3688 
L 1222 3688 
L 1222 2778 
L 2772 2778 
L 2772 3688 
z
M 5056 -563 
L 5056 1281 
L 1581 1281 
L 1581 1697 
L 5522 1697 
L 5522 -563 
L 5056 -563 
z
" transform="scale(0.015625)"/>
       <path id="MalgunGothic-657" d="M 1338 2994 
L 1338 5306 
L 1806 5306 
L 1806 4525 
L 4594 4525 
L 4594 5306 
L 5056 5306 
L 5056 2994 
L 1338 2994 
z
M 4594 4109 
L 1806 4109 
L 1806 3406 
L 4594 3406 
L 4594 4109 
z
M 3456 1863 
L 3456 494 
L 2988 494 
L 2988 1863 
L 403 1863 
L 403 2278 
L 5997 2278 
L 5997 1863 
L 3456 1863 
z
M 1288 -384 
L 1288 1344 
L 1753 1344 
L 1753 31 
L 5216 31 
L 5216 -384 
L 1288 -384 
z
" transform="scale(0.015625)"/>
       <path id="MalgunGothic-862" d="M 4997 -563 
L 4997 5466 
L 5466 5466 
L 5466 -563 
L 4997 -563 
z
M 2491 2784 
Q 1800 2784 1376 3140 
Q 953 3497 953 4038 
Q 953 4581 1376 4940 
Q 1800 5300 2491 5300 
Q 3178 5300 3598 4942 
Q 4019 4584 4019 4038 
Q 4019 3494 3600 3139 
Q 3181 2784 2491 2784 
z
M 2491 4897 
Q 2006 4897 1714 4659 
Q 1422 4422 1422 4038 
Q 1422 3653 1714 3420 
Q 2006 3188 2491 3188 
Q 2978 3188 3265 3422 
Q 3553 3656 3553 4038 
Q 3553 4419 3264 4658 
Q 2975 4897 2491 4897 
z
M 2297 -391 
L 2297 1825 
Q 903 1800 500 1800 
L 453 2209 
Q 3088 2209 4603 2297 
L 4628 1894 
Q 4203 1866 2766 1831 
L 2766 -391 
L 2297 -391 
z
" transform="scale(0.015625)"/>
       <path id="MalgunGothic-c" d="M 81 -1044 
Q 1081 150 1081 1759 
Q 1081 3378 72 4600 
L 525 4600 
Q 1522 3431 1522 1753 
Q 1522 88 525 -1044 
L 81 -1044 
z
" transform="scale(0.015625)"/>
      </defs>
      <use xlink:href="#MalgunGothic-2bc"/>
      <use xlink:href="#MalgunGothic-b22" transform="translate(100 0)"/>
      <use xlink:href="#MalgunGothic-3" transform="translate(200 0)"/>
      <use xlink:href="#MalgunGothic-8ba" transform="translate(235.15625 0)"/>
      <use xlink:href="#MalgunGothic-739" transform="translate(335.15625 0)"/>
      <use xlink:href="#MalgunGothic-3" transform="translate(435.15625 0)"/>
      <use xlink:href="#MalgunGothic-2f1" transform="translate(470.3125 0)"/>
      <use xlink:href="#MalgunGothic-27e" transform="translate(570.3125 0)"/>
      <use xlink:href="#MalgunGothic-3" transform="translate(670.3125 0)"/>
      <use xlink:href="#MalgunGothic-b" transform="translate(705.46875 0)"/>
      <use xlink:href="#MalgunGothic-2e" transform="translate(735.9375 0)"/>
      <use xlink:href="#MalgunGothic-32" transform="translate(790.234375 0)"/>
      <use xlink:href="#MalgunGothic-36" transform="translate(867.578125 0)"/>
      <use xlink:href="#MalgunGothic-33" transform="translate(921.875 0)"/>
      <use xlink:href="#MalgunGothic-2c" transform="translate(978.953125 0)"/>
      <use xlink:href="#MalgunGothic-15" transform="translate(1005.953125 0)"/>
      <use xlink:href="#MalgunGothic-13" transform="translate(1061.03125 0)"/>
      <use xlink:href="#MalgunGothic-13" transform="translate(1116.109375 0)"/>
      <use xlink:href="#MalgunGothic-3" transform="translate(1171.1875 0)"/>
      <use xlink:href="#MalgunGothic-3b0" transform="translate(1206.34375 0)"/>
      <use xlink:href="#MalgunGothic-3" transform="translate(1306.34375 0)"/>
      <use xlink:href="#MalgunGothic-612" transform="translate(1341.5 0)"/>
      <use xlink:href="#MalgunGothic-657" transform="translate(1441.5 0)"/>
      <use xlink:href="#MalgunGothic-862" transform="translate(1541.5 0)"/>
      <use xlink:href="#MalgunGothic-c" transform="translate(1641.5 0)"/>
     </g>
    </g>
   </g>
   <g id="matplotlib.axis_2">
    <g id="ytick_1">
     <g id="line2d_11">
      <defs>
       <path id="m3e598647df" d="M 0 0 
L -3.5 0 
" style="stroke: #000000; stroke-width: 0.8"/>
      </defs>
      <g>
       <use xlink:href="#m3e598647df" x="42.521953" y="256.610037" style="stroke: #000000; stroke-width: 0.8"/>
      </g>
     </g>
     <g id="text_12">
      <!-- -8 -->
      <g transform="translate(25.912578 260.60906) scale(0.1 -0.1)">
       <defs>
        <path id="MalgunGothic-10" d="M 2213 1634 
L 463 1634 
L 463 2031 
L 2213 2031 
L 2213 1634 
z
" transform="scale(0.015625)"/>
       </defs>
       <use xlink:href="#MalgunGothic-10"/>
       <use xlink:href="#MalgunGothic-1b" transform="translate(41.015625 0)"/>
      </g>
     </g>
    </g>
    <g id="ytick_2">
     <g id="line2d_12">
      <g>
       <use xlink:href="#m3e598647df" x="42.521953" y="226.233276" style="stroke: #000000; stroke-width: 0.8"/>
      </g>
     </g>
     <g id="text_13">
      <!-- -6 -->
      <g transform="translate(25.912578 230.232299) scale(0.1 -0.1)">
       <use xlink:href="#MalgunGothic-10"/>
       <use xlink:href="#MalgunGothic-19" transform="translate(41.015625 0)"/>
      </g>
     </g>
    </g>
    <g id="ytick_3">
     <g id="line2d_13">
      <g>
       <use xlink:href="#m3e598647df" x="42.521953" y="195.856516" style="stroke: #000000; stroke-width: 0.8"/>
      </g>
     </g>
     <g id="text_14">
      <!-- -4 -->
      <g transform="translate(25.912578 199.855539) scale(0.1 -0.1)">
       <use xlink:href="#MalgunGothic-10"/>
       <use xlink:href="#MalgunGothic-17" transform="translate(41.015625 0)"/>
      </g>
     </g>
    </g>
    <g id="ytick_4">
     <g id="line2d_14">
      <g>
       <use xlink:href="#m3e598647df" x="42.521953" y="165.479755" style="stroke: #000000; stroke-width: 0.8"/>
      </g>
     </g>
     <g id="text_15">
      <!-- -2 -->
      <g transform="translate(25.912578 169.478779) scale(0.1 -0.1)">
       <use xlink:href="#MalgunGothic-10"/>
       <use xlink:href="#MalgunGothic-15" transform="translate(41.015625 0)"/>
      </g>
     </g>
    </g>
    <g id="ytick_5">
     <g id="line2d_15">
      <g>
       <use xlink:href="#m3e598647df" x="42.521953" y="135.102995" style="stroke: #000000; stroke-width: 0.8"/>
      </g>
     </g>
     <g id="text_16">
      <!-- 0 -->
      <g transform="translate(30.014141 139.102018) scale(0.1 -0.1)">
       <use xlink:href="#MalgunGothic-13"/>
      </g>
     </g>
    </g>
    <g id="ytick_6">
     <g id="line2d_16">
      <g>
       <use xlink:href="#m3e598647df" x="42.521953" y="104.726234" style="stroke: #000000; stroke-width: 0.8"/>
      </g>
     </g>
     <g id="text_17">
      <!-- 2 -->
      <g transform="translate(30.014141 108.725258) scale(0.1 -0.1)">
       <use xlink:href="#MalgunGothic-15"/>
      </g>
     </g>
    </g>
    <g id="ytick_7">
     <g id="line2d_17">
      <g>
       <use xlink:href="#m3e598647df" x="42.521953" y="74.349474" style="stroke: #000000; stroke-width: 0.8"/>
      </g>
     </g>
     <g id="text_18">
      <!-- 4 -->
      <g transform="translate(30.014141 78.348497) scale(0.1 -0.1)">
       <use xlink:href="#MalgunGothic-17"/>
      </g>
     </g>
    </g>
    <g id="ytick_8">
     <g id="line2d_18">
      <g>
       <use xlink:href="#m3e598647df" x="42.521953" y="43.972713" style="stroke: #000000; stroke-width: 0.8"/>
      </g>
     </g>
     <g id="text_19">
      <!-- 6 -->
      <g transform="translate(30.014141 47.971737) scale(0.1 -0.1)">
       <use xlink:href="#MalgunGothic-19"/>
      </g>
     </g>
    </g>
    <g id="text_20">
     <!-- 초과수익 (%) -->
     <g transform="translate(19.910625 189.376816) rotate(-90) scale(0.1 -0.1)">
      <defs>
       <path id="MalgunGothic-99f" d="M 3438 4256 
Q 3478 3700 4140 3189 
Q 4803 2678 5734 2522 
L 5434 2113 
Q 4759 2278 4103 2708 
Q 3447 3138 3194 3578 
Q 2919 3122 2306 2709 
Q 1694 2297 997 2106 
L 672 2509 
Q 1550 2638 2229 3166 
Q 2909 3694 2956 4256 
L 1025 4256 
L 1025 4672 
L 2969 4672 
L 2969 5356 
L 3444 5356 
L 3444 4672 
L 5375 4672 
L 5375 4256 
L 3438 4256 
z
M 403 391 
L 403 806 
L 2956 806 
L 2956 2209 
L 3431 2209 
L 3431 806 
L 5997 806 
L 5997 391 
L 403 391 
z
" transform="scale(0.015625)"/>
       <path id="MalgunGothic-2d5" d="M 6188 2663 
L 5203 2663 
L 5203 -563 
L 4728 -563 
L 4728 5466 
L 5197 5466 
L 5197 3078 
L 6188 3078 
L 6188 2663 
z
M 3828 4897 
Q 3828 3144 3713 1800 
L 3256 1831 
Q 3294 2163 3326 3077 
Q 3359 3991 3359 4481 
L 800 4481 
L 800 4897 
L 3828 4897 
z
M 4319 666 
Q 2688 575 281 575 
L 238 984 
Q 559 984 1747 1000 
L 1747 3084 
L 2216 3084 
L 2216 1006 
L 4288 1069 
L 4319 666 
z
" transform="scale(0.015625)"/>
       <path id="MalgunGothic-888" d="M 4953 2069 
L 4953 5466 
L 5428 5466 
L 5428 2069 
L 4953 2069 
z
M 2400 2394 
Q 1728 2394 1300 2808 
Q 872 3222 872 3847 
Q 872 4469 1297 4881 
Q 1722 5294 2400 5294 
Q 3078 5294 3508 4883 
Q 3938 4472 3938 3847 
Q 3938 3216 3506 2805 
Q 3075 2394 2400 2394 
z
M 2400 4897 
Q 1928 4897 1633 4601 
Q 1338 4306 1338 3847 
Q 1338 3381 1631 3089 
Q 1925 2797 2400 2797 
Q 2878 2797 3173 3090 
Q 3469 3384 3469 3847 
Q 3469 4300 3173 4598 
Q 2878 4897 2400 4897 
z
M 4953 -563 
L 4953 1319 
L 1478 1319 
L 1478 1734 
L 5428 1734 
L 5428 -563 
L 4953 -563 
z
" transform="scale(0.015625)"/>
       <path id="MalgunGothic-8" d="M 253 3444 
Q 253 3997 547 4331 
Q 841 4666 1353 4666 
Q 1847 4666 2115 4355 
Q 2384 4044 2384 3509 
Q 2384 2972 2082 2633 
Q 1781 2294 1288 2294 
Q 816 2294 534 2608 
Q 253 2922 253 3444 
z
M 666 3475 
Q 666 3091 841 2864 
Q 1016 2638 1322 2638 
Q 1631 2638 1803 2863 
Q 1975 3088 1975 3494 
Q 1975 3894 1804 4112 
Q 1634 4331 1334 4331 
Q 1022 4331 844 4098 
Q 666 3866 666 3475 
z
M 4350 4600 
L 1403 -34 
L 966 -34 
L 3909 4600 
L 4350 4600 
z
M 2988 1078 
Q 2988 1641 3284 1977 
Q 3581 2313 4081 2313 
Q 4569 2313 4841 2000 
Q 5113 1688 5113 1138 
Q 5113 600 4809 264 
Q 4506 -72 4019 -72 
Q 3550 -72 3269 245 
Q 2988 563 2988 1078 
z
M 3394 1103 
Q 3394 725 3570 498 
Q 3747 272 4050 272 
Q 4356 272 4529 501 
Q 4703 731 4703 1134 
Q 4703 1534 4534 1748 
Q 4366 1963 4066 1963 
Q 3753 1963 3573 1731 
Q 3394 1500 3394 1103 
z
" transform="scale(0.015625)"/>
      </defs>
      <use xlink:href="#MalgunGothic-99f"/>
      <use xlink:href="#MalgunGothic-2d5" transform="translate(100 0)"/>
      <use xlink:href="#MalgunGothic-739" transform="translate(200 0)"/>
      <use xlink:href="#MalgunGothic-888" transform="translate(300 0)"/>
      <use xlink:href="#MalgunGothic-3" transform="translate(400 0)"/>
      <use xlink:href="#MalgunGothic-b" transform="translate(435.15625 0)"/>
      <use xlink:href="#MalgunGothic-8" transform="translate(465.625 0)"/>
      <use xlink:href="#MalgunGothic-c" transform="translate(549.265625 0)"/>
     </g>
    </g>
   </g>
   <g id="line2d_19">
    <path d="M 67.91641 169.442722 
L 124.348536 157.577824 
L 180.780662 152.351245 
L 237.212788 153.269831 
L 293.644914 153.792125 
L 350.07704 150.849532 
L 406.509165 146.82665 
L 462.941291 145.370206 
L 519.373417 147.947885 
L 575.805543 145.099474 
" clip-path="url(#p041778dcc2)" style="fill: none; stroke: #1565c0; stroke-width: 1.5; stroke-linecap: square"/>
    <defs>
     <path id="m020352b5bf" d="M 0 3 
C 0.795609 3 1.55874 2.683901 2.12132 2.12132 
C 2.683901 1.55874 3 0.795609 3 0 
C 3 -0.795609 2.683901 -1.55874 2.12132 -2.12132 
C 1.55874 -2.683901 0.795609 -3 0 -3 
C -0.795609 -3 -1.55874 -2.683901 -2.12132 -2.12132 
C -2.683901 -1.55874 -3 -0.795609 -3 0 
C -3 0.795609 -2.683901 1.55874 -2.12132 2.12132 
C -1.55874 2.683901 -0.795609 3 0 3 
z
" style="stroke: #1565c0"/>
    </defs>
    <g clip-path="url(#p041778dcc2)">
     <use xlink:href="#m020352b5bf" x="67.91641" y="169.442722" style="fill: #1565c0; stroke: #1565c0"/>
     <use xlink:href="#m020352b5bf" x="124.348536" y="157.577824" style="fill: #1565c0; stroke: #1565c0"/>
     <use xlink:href="#m020352b5bf" x="180.780662" y="152.351245" style="fill: #1565c0; stroke: #1565c0"/>
     <use xlink:href="#m020352b5bf" x="237.212788" y="153.269831" style="fill: #1565c0; stroke: #1565c0"/>
     <use xlink:href="#m020352b5bf" x="293.644914" y="153.792125" style="fill: #1565c0; stroke: #1565c0"/>
     <use xlink:href="#m020352b5bf" x="350.07704" y="150.849532" style="fill: #1565c0; stroke: #1565c0"/>
     <use xlink:href="#m020352b5bf" x="406.509165" y="146.82665" style="fill: #1565c0; stroke: #1565c0"/>
     <use xlink:href="#m020352b5bf" x="462.941291" y="145.370206" style="fill: #1565c0; stroke: #1565c0"/>
     <use xlink:href="#m020352b5bf" x="519.373417" y="147.947885" style="fill: #1565c0; stroke: #1565c0"/>
     <use xlink:href="#m020352b5bf" x="575.805543" y="145.099474" style="fill: #1565c0; stroke: #1565c0"/>
    </g>
   </g>
   <g id="line2d_20">
    <path d="M 42.521953 135.102995 
L 601.2 135.102995 
" clip-path="url(#p041778dcc2)" style="fill: none; stroke: #000000; stroke-width: 0.8; stroke-linecap: square"/>
   </g>
   <g id="patch_3">
    <path d="M 42.521953 283.058047 
L 42.521953 37.722148 
" style="fill: none; stroke: #000000; stroke-width: 0.8; stroke-linejoin: miter; stroke-linecap: square"/>
   </g>
   <g id="patch_4">
    <path d="M 601.2 283.058047 
L 601.2 37.722148 
" style="fill: none; stroke: #000000; stroke-width: 0.8; stroke-linejoin: miter; stroke-linecap: square"/>
   </g>
   <g id="patch_5">
    <path d="M 42.521953 283.058047 
L 601.2 283.058047 
" style="fill: none; stroke: #000000; stroke-width: 0.8; stroke-linejoin: miter; stroke-linecap: square"/>
   </g>
   <g id="patch_6">
    <path d="M 42.521953 37.722148 
L 601.2 37.722148 
" style="fill: none; stroke: #000000; stroke-width: 0.8; stroke-linejoin: miter; stroke-linecap: square"/>
   </g>
   <g id="text_21">
    <!-- Phase 3 — 보정표: 점수 구간별 실제 20일 시장 대비 초과수익 (train 구간) -->
    <g transform="translate(138.131758 20.125313) scale(0.11 -0.11)">
     <defs>
      <path id="MalgunGothic-4b" d="M 3238 0 
L 2744 0 
L 2744 1894 
Q 2744 2941 1963 2941 
Q 1572 2941 1303 2637 
Q 1034 2334 1034 1859 
L 1034 0 
L 538 0 
L 538 4859 
L 1034 4859 
L 1034 2734 
L 1047 2734 
Q 1425 3359 2128 3359 
Q 3238 3359 3238 2022 
L 3238 0 
z
" transform="scale(0.015625)"/>
      <path id="MalgunGothic-44" d="M 616 3050 
Q 1097 3359 1722 3359 
Q 2866 3359 2866 2147 
L 2866 0 
L 2369 0 
L 2369 516 
L 2350 516 
Q 2009 -78 1341 -78 
Q 859 -78 576 180 
Q 294 438 294 869 
Q 294 1784 1375 1934 
L 2366 2078 
Q 2366 2934 1684 2934 
Q 1084 2934 616 2525 
L 616 3050 
z
M 1563 1559 
Q 1178 1509 993 1371 
Q 809 1234 809 903 
Q 809 653 986 500 
Q 1163 347 1450 347 
Q 1847 347 2106 628 
Q 2366 909 2366 1334 
L 2366 1666 
L 1563 1559 
z
" transform="scale(0.015625)"/>
      <path id="MalgunGothic-56" d="M 331 669 
Q 763 350 1278 350 
Q 1978 350 1978 822 
Q 1978 1025 1825 1158 
Q 1672 1291 1222 1459 
Q 703 1666 520 1878 
Q 338 2091 338 2416 
Q 338 2834 700 3096 
Q 1063 3359 1584 3359 
Q 2003 3359 2341 3213 
L 2341 2697 
Q 1975 2934 1506 2934 
Q 1200 2934 1025 2798 
Q 850 2663 850 2459 
Q 850 2241 979 2125 
Q 1109 2009 1544 1838 
Q 2131 1609 2309 1390 
Q 2488 1172 2488 869 
Q 2488 431 2127 176 
Q 1766 -78 1203 -78 
Q 694 -78 331 122 
L 331 669 
z
" transform="scale(0.015625)"/>
      <path id="MalgunGothic-48" d="M 3156 1519 
L 828 1519 
Q 844 950 1133 648 
Q 1422 347 1909 347 
Q 2472 347 2934 719 
L 2934 244 
Q 2494 -78 1794 -78 
Q 1100 -78 708 376 
Q 316 831 316 1634 
Q 316 2381 747 2870 
Q 1178 3359 1816 3359 
Q 2453 3359 2804 2942 
Q 3156 2525 3156 1788 
L 3156 1519 
z
M 2644 1956 
Q 2644 2416 2423 2675 
Q 2203 2934 1809 2934 
Q 1438 2934 1169 2667 
Q 900 2400 834 1956 
L 2644 1956 
z
" transform="scale(0.015625)"/>
      <path id="MalgunGothic-118" d="M 6566 1634 
L 0 1634 
L 0 2031 
L 6566 2031 
L 6566 1634 
z
" transform="scale(0.015625)"/>
      <path id="MalgunGothic-63f" d="M 3438 2053 
L 3438 756 
L 5997 756 
L 5997 341 
L 403 341 
L 403 756 
L 2963 756 
L 2963 2053 
L 1306 2053 
L 1306 4947 
L 1772 4947 
L 1772 3903 
L 4628 3903 
L 4628 4947 
L 5088 4947 
L 5088 2053 
L 3438 2053 
z
M 4628 3481 
L 1772 3481 
L 1772 2478 
L 4628 2478 
L 4628 3481 
z
" transform="scale(0.015625)"/>
      <path id="MalgunGothic-8bd" d="M 4947 1984 
L 4947 3694 
L 3541 3694 
L 3541 4109 
L 4947 4109 
L 4947 5466 
L 5416 5466 
L 5416 1984 
L 4947 1984 
z
M 3653 2328 
Q 3244 2550 2831 2950 
Q 2419 3350 2253 3700 
Q 2075 3303 1659 2858 
Q 1244 2413 819 2175 
L 488 2497 
Q 1134 2806 1571 3393 
Q 2009 3981 2009 4628 
L 2009 4781 
L 684 4781 
L 684 5197 
L 3788 5197 
L 3788 4781 
L 2463 4781 
L 2463 4628 
Q 2463 4025 2916 3472 
Q 3369 2919 3969 2669 
L 3653 2328 
z
M 3566 -475 
Q 2622 -475 2108 -148 
Q 1594 178 1594 697 
Q 1594 1216 2106 1539 
Q 2619 1863 3566 1863 
Q 4513 1863 5025 1539 
Q 5538 1216 5538 697 
Q 5538 178 5023 -148 
Q 4509 -475 3566 -475 
z
M 3566 1466 
Q 2850 1466 2472 1248 
Q 2094 1031 2094 697 
Q 2094 359 2473 143 
Q 2853 -72 3566 -72 
Q 4275 -72 4656 142 
Q 5038 356 5038 697 
Q 5038 1034 4659 1250 
Q 4281 1466 3566 1466 
z
" transform="scale(0.015625)"/>
      <path id="MalgunGothic-af2" d="M 997 4897 
L 5403 4897 
L 5403 4488 
L 997 4488 
L 997 4897 
z
M 4481 2566 
L 5478 2566 
L 5478 2156 
L 4494 2156 
L 4494 756 
L 5997 756 
L 5997 341 
L 403 341 
L 403 756 
L 1906 756 
L 1906 2156 
L 922 2156 
L 922 2566 
L 1919 2566 
L 1844 4172 
L 2303 4172 
L 2381 2566 
L 4019 2566 
L 4097 4172 
L 4556 4172 
L 4481 2566 
z
M 2375 756 
L 4025 756 
L 4025 2156 
L 2375 2156 
L 2375 756 
z
" transform="scale(0.015625)"/>
      <path id="MalgunGothic-1d" d="M 356 3006 
Q 356 3153 459 3254 
Q 563 3356 700 3356 
Q 838 3356 941 3254 
Q 1044 3153 1044 3006 
Q 1044 2863 942 2761 
Q 841 2659 700 2659 
Q 559 2659 457 2761 
Q 356 2863 356 3006 
z
M 356 275 
Q 356 422 459 523 
Q 563 625 700 625 
Q 838 625 941 523 
Q 1044 422 1044 275 
Q 1044 138 942 33 
Q 841 -72 700 -72 
Q 559 -72 457 29 
Q 356 131 356 275 
z
" transform="scale(0.015625)"/>
      <path id="MalgunGothic-637" d="M 1038 2578 
L 1038 5288 
L 1497 5288 
L 1497 4294 
L 3366 4294 
L 3366 5288 
L 3828 5288 
L 3828 4666 
L 4947 4666 
L 4947 5466 
L 5416 5466 
L 5416 2259 
L 4947 2259 
L 4947 3128 
L 3828 3128 
L 3828 2578 
L 1038 2578 
z
M 3828 4263 
L 3828 3525 
L 4947 3525 
L 4947 4263 
L 3828 4263 
z
M 3366 3884 
L 1497 3884 
L 1497 2994 
L 3366 2994 
L 3366 3884 
z
M 1728 -488 
L 1728 947 
L 4953 947 
L 4953 1516 
L 1728 1516 
L 1728 1925 
L 5416 1925 
L 5416 550 
L 2194 550 
L 2194 -72 
L 5581 -72 
L 5581 -488 
L 1728 -488 
z
" transform="scale(0.015625)"/>
      <path id="MalgunGothic-768" d="M 4878 2450 
L 4878 5466 
L 5344 5466 
L 5344 2450 
L 4878 2450 
z
M 3653 2663 
Q 3266 2828 2845 3203 
Q 2425 3578 2241 3938 
Q 1884 3125 800 2509 
L 469 2822 
Q 1178 3159 1590 3681 
Q 2003 4203 2003 4813 
L 2003 5331 
L 2456 5331 
L 2456 4813 
Q 2456 4219 2907 3717 
Q 3359 3216 3969 3003 
L 3653 2663 
z
M 1631 -422 
L 1631 1069 
L 4884 1069 
L 4884 1716 
L 1631 1716 
L 1631 2131 
L 5344 2131 
L 5344 666 
L 2094 666 
L 2094 -6 
L 5509 -6 
L 5509 -422 
L 1631 -422 
z
" transform="scale(0.015625)"/>
      <path id="MalgunGothic-8bf" d="M 5038 -563 
L 5038 5466 
L 5503 5466 
L 5503 -563 
L 5038 -563 
z
M 3944 -378 
L 3944 2975 
L 2894 2975 
L 2894 3391 
L 3944 3391 
L 3944 5344 
L 4403 5344 
L 4403 -378 
L 3944 -378 
z
M 3116 850 
Q 2306 1647 1984 2734 
Q 1881 2291 1529 1722 
Q 1178 1153 775 769 
L 409 1063 
Q 941 1438 1350 2248 
Q 1759 3059 1759 3834 
L 1759 4525 
L 634 4525 
L 634 4941 
L 3359 4941 
L 3359 4525 
L 2222 4525 
L 2222 3828 
Q 2222 3075 2589 2328 
Q 2956 1581 3469 1153 
L 3116 850 
z
" transform="scale(0.015625)"/>
      <path id="MalgunGothic-88a" d="M 4947 2363 
L 4947 5466 
L 5422 5466 
L 5422 2363 
L 4947 2363 
z
M 2419 2578 
Q 1738 2578 1314 2970 
Q 891 3363 891 3969 
Q 891 4572 1314 4961 
Q 1738 5350 2419 5350 
Q 3097 5350 3523 4959 
Q 3950 4569 3950 3969 
Q 3950 3366 3522 2972 
Q 3094 2578 2419 2578 
z
M 2419 4947 
Q 1931 4947 1643 4680 
Q 1356 4413 1356 3969 
Q 1356 3522 1643 3248 
Q 1931 2975 2419 2975 
Q 2906 2975 3193 3248 
Q 3481 3522 3481 3969 
Q 3481 4413 3193 4680 
Q 2906 4947 2419 4947 
z
M 1703 -422 
L 1703 1038 
L 4959 1038 
L 4959 1613 
L 1703 1613 
L 1703 2028 
L 5422 2028 
L 5422 634 
L 2163 634 
L 2163 -6 
L 5588 -6 
L 5588 -422 
L 1703 -422 
z
" transform="scale(0.015625)"/>
      <path id="MalgunGothic-764" d="M 4947 -563 
L 4947 5466 
L 5416 5466 
L 5416 -563 
L 4947 -563 
z
M 3769 966 
Q 3263 1353 2820 1939 
Q 2378 2525 2259 2950 
Q 2116 2463 1687 1872 
Q 1259 1281 756 891 
L 397 1203 
Q 1141 1703 1581 2479 
Q 2022 3256 2022 4063 
L 2022 5050 
L 2484 5050 
L 2484 4084 
Q 2484 3303 2920 2556 
Q 3356 1809 4097 1331 
L 3769 966 
z
" transform="scale(0.015625)"/>
      <path id="MalgunGothic-8a0" d="M 5125 3391 
L 5125 1991 
L 4659 1991 
L 4659 5466 
L 5125 5466 
L 5125 3816 
L 6034 3816 
L 6034 3391 
L 5125 3391 
z
M 3603 2316 
Q 3206 2528 2778 2940 
Q 2350 3353 2188 3694 
Q 2016 3300 1600 2853 
Q 1184 2406 750 2163 
L 409 2484 
Q 1072 2806 1512 3397 
Q 1953 3988 1953 4628 
L 1953 4781 
L 622 4781 
L 622 5197 
L 3731 5197 
L 3731 4781 
L 2400 4781 
L 2400 4628 
Q 2400 4025 2845 3472 
Q 3291 2919 3909 2656 
L 3603 2316 
z
M 3263 -513 
Q 2322 -513 1811 -186 
Q 1300 141 1300 659 
Q 1300 1175 1812 1500 
Q 2325 1825 3263 1825 
Q 4203 1825 4715 1501 
Q 5228 1178 5228 659 
Q 5228 138 4717 -187 
Q 4206 -513 3263 -513 
z
M 3263 1428 
Q 2563 1428 2180 1215 
Q 1797 1003 1797 659 
Q 1797 309 2181 96 
Q 2566 -116 3263 -116 
Q 3969 -116 4353 98 
Q 4738 313 4738 659 
Q 4738 1000 4353 1214 
Q 3969 1428 3263 1428 
z
" transform="scale(0.015625)"/>
      <path id="MalgunGothic-43e" d="M 5069 -563 
L 5069 2572 
L 4294 2572 
L 4294 -378 
L 3834 -378 
L 3834 5344 
L 4294 5344 
L 4294 2988 
L 5069 2988 
L 5069 5466 
L 5538 5466 
L 5538 -563 
L 5069 -563 
z
M 3391 1153 
Q 2516 1063 825 1063 
L 825 4934 
L 3138 4934 
L 3138 4519 
L 1288 4519 
L 1288 1478 
L 1844 1478 
Q 2791 1478 3359 1550 
L 3391 1153 
z
" transform="scale(0.015625)"/>
      <path id="MalgunGothic-678" d="M 4884 -563 
L 4884 5466 
L 5350 5466 
L 5350 -563 
L 4884 -563 
z
M 825 1081 
L 825 5013 
L 1294 5013 
L 1294 3469 
L 3244 3469 
L 3244 5013 
L 3713 5013 
L 3713 1081 
L 825 1081 
z
M 3244 3053 
L 1294 3053 
L 1294 1497 
L 3244 1497 
L 3244 3053 
z
" transform="scale(0.015625)"/>
      <path id="MalgunGothic-57" d="M 2031 31 
Q 1844 -72 1553 -72 
Q 706 -72 706 881 
L 706 2856 
L 138 2856 
L 138 3284 
L 706 3284 
L 706 4091 
L 1200 4250 
L 1200 3284 
L 2031 3284 
L 2031 2856 
L 1200 2856 
L 1200 972 
Q 1200 625 1315 487 
Q 1431 350 1691 350 
Q 1888 350 2031 459 
L 2031 31 
z
" transform="scale(0.015625)"/>
      <path id="MalgunGothic-55" d="M 2225 2775 
Q 2084 2881 1828 2881 
Q 1491 2881 1262 2553 
Q 1034 2225 1034 1681 
L 1034 0 
L 538 0 
L 538 3284 
L 1034 3284 
L 1034 2603 
L 1047 2603 
Q 1159 2950 1389 3145 
Q 1619 3341 1903 3341 
Q 2109 3341 2225 3297 
L 2225 2775 
z
" transform="scale(0.015625)"/>
      <path id="MalgunGothic-4c" d="M 472 4466 
Q 472 4606 565 4701 
Q 659 4797 794 4797 
Q 934 4797 1029 4700 
Q 1125 4603 1125 4466 
Q 1125 4325 1029 4231 
Q 934 4138 794 4138 
Q 659 4138 565 4230 
Q 472 4322 472 4466 
z
M 541 0 
L 541 3284 
L 1034 3284 
L 1034 0 
L 541 0 
z
" transform="scale(0.015625)"/>
      <path id="MalgunGothic-51" d="M 3238 0 
L 2741 0 
L 2741 1875 
Q 2741 2941 1963 2941 
Q 1563 2941 1298 2639 
Q 1034 2338 1034 1872 
L 1034 0 
L 538 0 
L 538 3284 
L 1034 3284 
L 1034 2734 
L 1047 2734 
Q 1416 3359 2125 3359 
Q 2666 3359 2952 3012 
Q 3238 2666 3238 2006 
L 3238 0 
z
" transform="scale(0.015625)"/>
     </defs>
     <use xlink:href="#MalgunGothic-33"/>
     <use xlink:href="#MalgunGothic-4b" transform="translate(57.078125 0)"/>
     <use xlink:href="#MalgunGothic-44" transform="translate(114.9375 0)"/>
     <use xlink:href="#MalgunGothic-56" transform="translate(166.9375 0)"/>
     <use xlink:href="#MalgunGothic-48" transform="translate(210.25 0)"/>
     <use xlink:href="#MalgunGothic-3" transform="translate(263.765625 0)"/>
     <use xlink:href="#MalgunGothic-16" transform="translate(298.921875 0)"/>
     <use xlink:href="#MalgunGothic-3" transform="translate(354 0)"/>
     <use xlink:href="#MalgunGothic-118" transform="translate(389.15625 0)"/>
     <use xlink:href="#MalgunGothic-3" transform="translate(491.75 0)"/>
     <use xlink:href="#MalgunGothic-63f" transform="translate(526.90625 0)"/>
     <use xlink:href="#MalgunGothic-8bd" transform="translate(626.90625 0)"/>
     <use xlink:href="#MalgunGothic-af2" transform="translate(726.90625 0)"/>
     <use xlink:href="#MalgunGothic-1d" transform="translate(826.90625 0)"/>
     <use xlink:href="#MalgunGothic-3" transform="translate(848.78125 0)"/>
     <use xlink:href="#MalgunGothic-8ba" transform="translate(883.9375 0)"/>
     <use xlink:href="#MalgunGothic-739" transform="translate(983.9375 0)"/>
     <use xlink:href="#MalgunGothic-3" transform="translate(1083.9375 0)"/>
     <use xlink:href="#MalgunGothic-2f1" transform="translate(1119.09375 0)"/>
     <use xlink:href="#MalgunGothic-27e" transform="translate(1219.09375 0)"/>
     <use xlink:href="#MalgunGothic-637" transform="translate(1319.09375 0)"/>
     <use xlink:href="#MalgunGothic-3" transform="translate(1419.09375 0)"/>
     <use xlink:href="#MalgunGothic-768" transform="translate(1454.25 0)"/>
     <use xlink:href="#MalgunGothic-8bf" transform="translate(1554.25 0)"/>
     <use xlink:href="#MalgunGothic-3" transform="translate(1654.25 0)"/>
     <use xlink:href="#MalgunGothic-15" transform="translate(1689.40625 0)"/>
     <use xlink:href="#MalgunGothic-13" transform="translate(1744.484375 0)"/>
     <use xlink:href="#MalgunGothic-88a" transform="translate(1799.5625 0)"/>
     <use xlink:href="#MalgunGothic-3" transform="translate(1899.5625 0)"/>
     <use xlink:href="#MalgunGothic-764" transform="translate(1934.71875 0)"/>
     <use xlink:href="#MalgunGothic-8a0" transform="translate(2034.71875 0)"/>
     <use xlink:href="#MalgunGothic-3" transform="translate(2134.71875 0)"/>
     <use xlink:href="#MalgunGothic-43e" transform="translate(2169.875 0)"/>
     <use xlink:href="#MalgunGothic-678" transform="translate(2269.875 0)"/>
     <use xlink:href="#MalgunGothic-3" transform="translate(2369.875 0)"/>
     <use xlink:href="#MalgunGothic-99f" transform="translate(2405.03125 0)"/>
     <use xlink:href="#MalgunGothic-2d5" transform="translate(2505.03125 0)"/>
     <use xlink:href="#MalgunGothic-739" transform="translate(2605.03125 0)"/>
     <use xlink:href="#MalgunGothic-888" transform="translate(2705.03125 0)"/>
     <use xlink:href="#MalgunGothic-3" transform="translate(2805.03125 0)"/>
     <use xlink:href="#MalgunGothic-b" transform="translate(2840.1875 0)"/>
     <use xlink:href="#MalgunGothic-57" transform="translate(2870.65625 0)"/>
     <use xlink:href="#MalgunGothic-55" transform="translate(2905.125 0)"/>
     <use xlink:href="#MalgunGothic-44" transform="translate(2940.484375 0)"/>
     <use xlink:href="#MalgunGothic-4c" transform="translate(2992.484375 0)"/>
     <use xlink:href="#MalgunGothic-51" transform="translate(3017.09375 0)"/>
     <use xlink:href="#MalgunGothic-3" transform="translate(3074.90625 0)"/>
     <use xlink:href="#MalgunGothic-2f1" transform="translate(3110.0625 0)"/>
     <use xlink:href="#MalgunGothic-27e" transform="translate(3210.0625 0)"/>
     <use xlink:href="#MalgunGothic-c" transform="translate(3310.0625 0)"/>
    </g>
    <!-- 단조성 spearman +0.915 · 최하위→최상위 스프레드 약 1.6%p -->
    <g transform="translate(168.25543 31.722148) scale(0.11 -0.11)">
     <defs>
      <path id="MalgunGothic-42f" d="M 5125 3169 
L 5125 1063 
L 4659 1063 
L 4659 5466 
L 5125 5466 
L 5125 3584 
L 6034 3584 
L 6034 3169 
L 5125 3169 
z
M 3903 2363 
Q 3306 2291 850 2291 
L 850 5081 
L 3688 5081 
L 3688 4666 
L 1319 4666 
L 1319 2706 
Q 3244 2706 3872 2766 
L 3903 2363 
z
M 1459 -378 
L 1459 1581 
L 1925 1581 
L 1925 38 
L 5294 38 
L 5294 -378 
L 1459 -378 
z
" transform="scale(0.015625)"/>
      <path id="MalgunGothic-8cf" d="M 3438 4494 
L 3438 4441 
Q 3438 3903 4070 3286 
Q 4703 2669 5759 2425 
L 5428 2041 
Q 4684 2275 4050 2754 
Q 3416 3234 3194 3688 
Q 2963 3231 2341 2759 
Q 1719 2288 972 2034 
L 641 2419 
Q 1666 2628 2311 3268 
Q 2956 3909 2956 4441 
L 2956 4494 
L 1025 4494 
L 1025 4909 
L 5375 4909 
L 5375 4494 
L 3438 4494 
z
M 403 391 
L 403 800 
L 2963 800 
L 2963 2322 
L 3438 2322 
L 3438 800 
L 5997 800 
L 5997 391 
L 403 391 
z
" transform="scale(0.015625)"/>
      <path id="MalgunGothic-6fd" d="M 4947 1984 
L 4947 3781 
L 3541 3781 
L 3541 4200 
L 4947 4200 
L 4947 5466 
L 5416 5466 
L 5416 1984 
L 4947 1984 
z
M 3653 2328 
Q 3244 2550 2831 2950 
Q 2419 3350 2253 3700 
Q 2075 3303 1659 2858 
Q 1244 2413 819 2175 
L 488 2497 
Q 1134 2806 1571 3393 
Q 2009 3981 2009 4628 
L 2009 5269 
L 2463 5269 
L 2463 4628 
Q 2463 4025 2916 3472 
Q 3369 2919 3969 2669 
L 3653 2328 
z
M 3566 -475 
Q 2622 -475 2108 -148 
Q 1594 178 1594 697 
Q 1594 1216 2106 1539 
Q 2619 1863 3566 1863 
Q 4513 1863 5025 1539 
Q 5538 1216 5538 697 
Q 5538 178 5023 -148 
Q 4509 -475 3566 -475 
z
M 3566 1466 
Q 2850 1466 2472 1248 
Q 2094 1031 2094 697 
Q 2094 359 2473 143 
Q 2853 -72 3566 -72 
Q 4275 -72 4656 142 
Q 5038 356 5038 697 
Q 5038 1034 4659 1250 
Q 4281 1466 3566 1466 
z
" transform="scale(0.015625)"/>
      <path id="MalgunGothic-53" d="M 1034 481 
L 1034 -1513 
L 538 -1513 
L 538 3284 
L 1034 3284 
L 1034 2703 
L 1047 2703 
Q 1438 3359 2184 3359 
Q 2809 3359 3171 2920 
Q 3534 2481 3534 1738 
Q 3534 906 3126 414 
Q 2719 -78 2034 -78 
Q 1394 -78 1047 481 
L 1034 481 
z
M 1034 1331 
Q 1034 922 1307 633 
Q 1581 344 1991 344 
Q 2475 344 2751 716 
Q 3028 1088 3028 1753 
Q 3028 2300 2767 2620 
Q 2506 2941 2072 2941 
Q 1619 2941 1326 2619 
Q 1034 2297 1034 1806 
L 1034 1331 
z
" transform="scale(0.015625)"/>
      <path id="MalgunGothic-50" d="M 5166 0 
L 4669 0 
L 4669 1884 
Q 4669 2463 4495 2702 
Q 4322 2941 3922 2941 
Q 3584 2941 3342 2623 
Q 3100 2306 3100 1875 
L 3100 0 
L 2606 0 
L 2606 1953 
Q 2606 2941 1844 2941 
Q 1497 2941 1265 2642 
Q 1034 2344 1034 1875 
L 1034 0 
L 538 0 
L 538 3284 
L 1034 3284 
L 1034 2763 
L 1047 2763 
Q 1391 3359 2063 3359 
Q 2381 3359 2636 3176 
Q 2891 2994 2991 2675 
Q 3356 3359 4081 3359 
Q 5166 3359 5166 2022 
L 5166 0 
z
" transform="scale(0.015625)"/>
      <path id="MalgunGothic-e" d="M 3750 1706 
L 2450 1706 
L 2450 413 
L 2041 413 
L 2041 1706 
L 744 1706 
L 744 2122 
L 2041 2122 
L 2041 3416 
L 2450 3416 
L 2450 2122 
L 3750 2122 
L 3750 1706 
z
" transform="scale(0.015625)"/>
      <path id="MalgunGothic-11" d="M 356 275 
Q 356 422 459 523 
Q 563 625 700 625 
Q 838 625 941 523 
Q 1044 422 1044 275 
Q 1044 138 942 33 
Q 841 -72 700 -72 
Q 559 -72 457 29 
Q 356 131 356 275 
z
" transform="scale(0.015625)"/>
      <path id="MalgunGothic-158" d="M 700 1644 
Q 628 1644 565 1672 
Q 503 1700 456 1747 
Q 409 1794 382 1858 
Q 356 1922 356 1994 
Q 356 2066 382 2130 
Q 409 2194 456 2241 
Q 503 2288 565 2316 
Q 628 2344 700 2344 
Q 772 2344 834 2316 
Q 897 2288 944 2241 
Q 991 2194 1017 2130 
Q 1044 2066 1044 1994 
Q 1044 1925 1017 1861 
Q 991 1797 944 1748 
Q 897 1700 834 1672 
Q 772 1644 700 1644 
z
" transform="scale(0.015625)"/>
      <path id="MalgunGothic-9ab" d="M 5484 5466 
L 5484 -563 
L 5019 -563 
L 5019 5466 
L 5484 5466 
z
M 2778 4250 
Q 2797 3766 3325 3298 
Q 3853 2831 4434 2734 
L 4116 2356 
Q 3628 2522 3158 2883 
Q 2688 3244 2541 3547 
Q 2391 3228 1923 2823 
Q 1456 2419 972 2228 
L 634 2572 
Q 1247 2744 1767 3239 
Q 2288 3734 2309 4250 
L 838 4250 
L 838 4666 
L 2309 4666 
L 2309 5369 
L 2784 5369 
L 2784 4666 
L 4206 4666 
L 4206 4250 
L 2778 4250 
z
M 4659 659 
Q 2878 556 500 556 
L 453 972 
Q 1447 972 2309 991 
L 2309 2356 
L 2778 2356 
L 2778 1000 
Q 4206 1034 4634 1063 
L 4659 659 
z
" transform="scale(0.015625)"/>
      <path id="MalgunGothic-b1c" d="M 5094 2278 
L 5094 -563 
L 4628 -563 
L 4628 5466 
L 5094 5466 
L 5094 2694 
L 6113 2694 
L 6113 2278 
L 5094 2278 
z
M 469 4084 
L 469 4506 
L 2022 4506 
L 2022 5466 
L 2491 5466 
L 2491 4506 
L 4050 4506 
L 4050 4084 
L 469 4084 
z
M 2253 934 
Q 1588 934 1166 1318 
Q 744 1703 744 2272 
Q 744 2850 1166 3233 
Q 1588 3616 2259 3616 
Q 2928 3616 3351 3231 
Q 3775 2847 3775 2266 
Q 3775 1694 3351 1314 
Q 2928 934 2253 934 
z
M 2259 3219 
Q 1797 3219 1500 2941 
Q 1203 2663 1203 2272 
Q 1203 1884 1501 1607 
Q 1800 1331 2259 1331 
Q 2719 1331 3017 1607 
Q 3316 1884 3316 2272 
Q 3316 2663 3019 2941 
Q 2722 3219 2259 3219 
z
" transform="scale(0.015625)"/>
      <path id="MalgunGothic-225" d="M 4697 2106 
Q 4269 2403 4050 2881 
L 4347 3028 
Q 4522 2616 4886 2337 
Q 5250 2059 5625 2059 
L 5625 1778 
Q 5253 1778 4887 1503 
Q 4522 1228 4347 813 
L 4050 959 
Q 4247 1406 4703 1741 
L 453 1741 
L 453 2106 
L 4697 2106 
z
" transform="scale(0.015625)"/>
      <path id="MalgunGothic-6d8" d="M 5125 3391 
L 5125 1991 
L 4659 1991 
L 4659 5466 
L 5125 5466 
L 5125 3816 
L 6034 3816 
L 6034 3391 
L 5125 3391 
z
M 3603 2316 
Q 3206 2528 2778 2934 
Q 2350 3341 2188 3681 
Q 2022 3291 1609 2852 
Q 1197 2413 750 2163 
L 409 2484 
Q 1072 2806 1512 3397 
Q 1953 3988 1953 4628 
L 1953 5259 
L 2400 5259 
L 2400 4628 
Q 2400 4025 2845 3472 
Q 3291 2919 3909 2656 
L 3603 2316 
z
M 3263 -513 
Q 2322 -513 1811 -186 
Q 1300 141 1300 659 
Q 1300 1175 1812 1500 
Q 2325 1825 3263 1825 
Q 4203 1825 4715 1501 
Q 5228 1178 5228 659 
Q 5228 138 4717 -187 
Q 4206 -513 3263 -513 
z
M 3263 1428 
Q 2563 1428 2180 1215 
Q 1797 1003 1797 659 
Q 1797 309 2181 96 
Q 2566 -116 3263 -116 
Q 3969 -116 4353 98 
Q 4738 313 4738 659 
Q 4738 1000 4353 1214 
Q 3969 1428 3263 1428 
z
" transform="scale(0.015625)"/>
      <path id="MalgunGothic-75b" d="M 3194 3897 
Q 2969 3416 2328 2930 
Q 1688 2444 959 2247 
L 641 2619 
Q 1703 2841 2329 3472 
Q 2956 4103 2956 4659 
L 2956 4978 
L 3438 4978 
L 3438 4659 
Q 3438 4094 4073 3476 
Q 4709 2859 5759 2625 
L 5428 2253 
Q 4694 2481 4058 2956 
Q 3422 3431 3194 3897 
z
M 5997 447 
L 403 447 
L 403 863 
L 5997 863 
L 5997 447 
z
" transform="scale(0.015625)"/>
      <path id="MalgunGothic-b0e" d="M 997 4891 
L 5403 4891 
L 5403 4475 
L 997 4475 
L 997 4891 
z
M 4459 2463 
L 5478 2463 
L 5478 2053 
L 922 2053 
L 922 2463 
L 1925 2463 
L 1850 4159 
L 2309 4159 
L 2388 2463 
L 4000 2463 
L 4091 4159 
L 4550 4159 
L 4459 2463 
z
M 403 397 
L 403 813 
L 5997 813 
L 5997 397 
L 403 397 
z
" transform="scale(0.015625)"/>
      <path id="MalgunGothic-526" d="M 5088 -563 
L 5088 5466 
L 5563 5466 
L 5563 -563 
L 5088 -563 
z
M 4000 -403 
L 4000 2509 
L 3144 2509 
L 3144 2925 
L 4000 2925 
L 4000 5344 
L 4459 5344 
L 4459 -403 
L 4000 -403 
z
M 769 722 
L 769 3144 
L 2438 3144 
L 2438 4506 
L 769 4506 
L 769 4922 
L 2906 4922 
L 2906 2741 
L 1234 2741 
L 1234 1141 
Q 2822 1141 3284 1222 
L 3334 825 
Q 2728 722 769 722 
z
" transform="scale(0.015625)"/>
      <path id="MalgunGothic-496" d="M 5050 4488 
L 1819 4488 
L 1819 2613 
L 5147 2613 
L 5147 2194 
L 1350 2194 
L 1350 4903 
L 5050 4903 
L 5050 4488 
z
M 403 481 
L 403 897 
L 5997 897 
L 5997 481 
L 403 481 
z
" transform="scale(0.015625)"/>
      <path id="MalgunGothic-7df" d="M 5125 2828 
L 5125 2100 
L 4659 2100 
L 4659 5466 
L 5125 5466 
L 5125 4588 
L 6034 4588 
L 6034 4178 
L 5125 4178 
L 5125 3238 
L 6034 3238 
L 6034 2828 
L 5125 2828 
z
M 2150 2394 
Q 1478 2394 1050 2808 
Q 622 3222 622 3847 
Q 622 4469 1047 4881 
Q 1472 5294 2150 5294 
Q 2828 5294 3258 4883 
Q 3688 4472 3688 3847 
Q 3688 3216 3256 2805 
Q 2825 2394 2150 2394 
z
M 2150 4897 
Q 1678 4897 1383 4601 
Q 1088 4306 1088 3847 
Q 1088 3381 1381 3089 
Q 1675 2797 2150 2797 
Q 2628 2797 2923 3090 
Q 3219 3384 3219 3847 
Q 3219 4300 2923 4598 
Q 2628 4897 2150 4897 
z
M 4659 -563 
L 4659 1350 
L 1259 1350 
L 1259 1766 
L 5125 1766 
L 5125 -563 
L 4659 -563 
z
" transform="scale(0.015625)"/>
     </defs>
     <use xlink:href="#MalgunGothic-42f"/>
     <use xlink:href="#MalgunGothic-8cf" transform="translate(100 0)"/>
     <use xlink:href="#MalgunGothic-6fd" transform="translate(200 0)"/>
     <use xlink:href="#MalgunGothic-3" transform="translate(300 0)"/>
     <use xlink:href="#MalgunGothic-56" transform="translate(335.15625 0)"/>
     <use xlink:href="#MalgunGothic-53" transform="translate(378.46875 0)"/>
     <use xlink:href="#MalgunGothic-48" transform="translate(438.53125 0)"/>
     <use xlink:href="#MalgunGothic-44" transform="translate(492.046875 0)"/>
     <use xlink:href="#MalgunGothic-55" transform="translate(544.046875 0)"/>
     <use xlink:href="#MalgunGothic-50" transform="translate(579.21875 0)"/>
     <use xlink:href="#MalgunGothic-44" transform="translate(667.203125 0)"/>
     <use xlink:href="#MalgunGothic-51" transform="translate(719.203125 0)"/>
     <use xlink:href="#MalgunGothic-3" transform="translate(777.015625 0)"/>
     <use xlink:href="#MalgunGothic-e" transform="translate(812.171875 0)"/>
     <use xlink:href="#MalgunGothic-13" transform="translate(882.234375 0)"/>
     <use xlink:href="#MalgunGothic-11" transform="translate(937.3125 0)"/>
     <use xlink:href="#MalgunGothic-1c" transform="translate(959.1875 0)"/>
     <use xlink:href="#MalgunGothic-14" transform="translate(1014.265625 0)"/>
     <use xlink:href="#MalgunGothic-18" transform="translate(1069.34375 0)"/>
     <use xlink:href="#MalgunGothic-3" transform="translate(1124.421875 0)"/>
     <use xlink:href="#MalgunGothic-158" transform="translate(1159.578125 0)"/>
     <use xlink:href="#MalgunGothic-3" transform="translate(1181.453125 0)"/>
     <use xlink:href="#MalgunGothic-9ab" transform="translate(1216.609375 0)"/>
     <use xlink:href="#MalgunGothic-b1c" transform="translate(1316.609375 0)"/>
     <use xlink:href="#MalgunGothic-862" transform="translate(1416.609375 0)"/>
     <use xlink:href="#MalgunGothic-225" transform="translate(1516.609375 0)"/>
     <use xlink:href="#MalgunGothic-9ab" transform="translate(1611.625 0)"/>
     <use xlink:href="#MalgunGothic-6d8" transform="translate(1711.625 0)"/>
     <use xlink:href="#MalgunGothic-862" transform="translate(1811.625 0)"/>
     <use xlink:href="#MalgunGothic-3" transform="translate(1911.625 0)"/>
     <use xlink:href="#MalgunGothic-75b" transform="translate(1946.78125 0)"/>
     <use xlink:href="#MalgunGothic-b0e" transform="translate(2046.78125 0)"/>
     <use xlink:href="#MalgunGothic-526" transform="translate(2146.78125 0)"/>
     <use xlink:href="#MalgunGothic-496" transform="translate(2246.78125 0)"/>
     <use xlink:href="#MalgunGothic-3" transform="translate(2346.78125 0)"/>
     <use xlink:href="#MalgunGothic-7df" transform="translate(2381.9375 0)"/>
     <use xlink:href="#MalgunGothic-3" transform="translate(2481.9375 0)"/>
     <use xlink:href="#MalgunGothic-14" transform="translate(2517.09375 0)"/>
     <use xlink:href="#MalgunGothic-11" transform="translate(2572.171875 0)"/>
     <use xlink:href="#MalgunGothic-19" transform="translate(2594.046875 0)"/>
     <use xlink:href="#MalgunGothic-8" transform="translate(2649.125 0)"/>
     <use xlink:href="#MalgunGothic-53" transform="translate(2732.765625 0)"/>
    </g>
   </g>
   <g id="legend_1">
    <g id="patch_7">
     <path d="M 507.990938 73.224687 
L 594.9 73.224687 
Q 596.7 73.224687 596.7 71.424687 
L 596.7 44.022148 
Q 596.7 42.222148 594.9 42.222148 
L 507.990938 42.222148 
Q 506.190938 42.222148 506.190938 44.022148 
L 506.190938 71.424687 
Q 506.190938 73.224687 507.990938 73.224687 
z
" style="fill: #ffffff; opacity: 0.8; stroke: #cccccc; stroke-linejoin: miter"/>
    </g>
    <g id="patch_8">
     <path d="M 509.790938 53.508711 
L 527.790938 53.508711 
L 527.790938 47.208711 
L 509.790938 47.208711 
z
" style="fill: #1565c0; fill-opacity: 0.25; stroke: #1565c0; stroke-opacity: 0.25; stroke-linejoin: miter"/>
    </g>
    <g id="text_22">
     <!-- p25~p75 구간 -->
     <g transform="translate(534.990938 53.508711) scale(0.09 -0.09)">
      <use xlink:href="#MalgunGothic-53"/>
      <use xlink:href="#MalgunGothic-15" transform="translate(60.0625 0)"/>
      <use xlink:href="#MalgunGothic-18" transform="translate(115.140625 0)"/>
      <use xlink:href="#MalgunGothic-61" transform="translate(170.21875 0)"/>
      <use xlink:href="#MalgunGothic-53" transform="translate(240.28125 0)"/>
      <use xlink:href="#MalgunGothic-1a" transform="translate(300.34375 0)"/>
      <use xlink:href="#MalgunGothic-18" transform="translate(355.421875 0)"/>
      <use xlink:href="#MalgunGothic-3" transform="translate(410.5 0)"/>
      <use xlink:href="#MalgunGothic-2f1" transform="translate(445.65625 0)"/>
      <use xlink:href="#MalgunGothic-27e" transform="translate(545.65625 0)"/>
     </g>
    </g>
    <g id="line2d_21">
     <path d="M 509.790938 64.67293 
L 518.790938 64.67293 
L 527.790938 64.67293 
" style="fill: none; stroke: #1565c0; stroke-width: 1.5; stroke-linecap: square"/>
     <g>
      <use xlink:href="#m020352b5bf" x="518.790938" y="64.67293" style="fill: #1565c0; stroke: #1565c0"/>
     </g>
    </g>
    <g id="text_23">
     <!-- 중앙값 -->
     <g transform="translate(534.990938 67.82293) scale(0.09 -0.09)">
      <defs>
       <path id="MalgunGothic-8f8" d="M 5459 3272 
Q 4750 3372 4097 3714 
Q 3444 4056 3206 4422 
Q 2984 4094 2328 3736 
Q 1672 3378 972 3278 
L 697 3653 
Q 1478 3713 2139 4083 
Q 2800 4453 2950 4878 
L 1025 4878 
L 1025 5300 
L 5375 5300 
L 5375 4878 
L 3456 4878 
Q 3597 4456 4251 4090 
Q 4906 3725 5703 3653 
L 5459 3272 
z
M 2963 1734 
L 2963 2431 
L 403 2431 
L 403 2853 
L 5997 2853 
L 5997 2431 
L 3438 2431 
L 3438 1734 
Q 4269 1697 4700 1400 
Q 5131 1103 5131 628 
Q 5131 100 4634 -200 
Q 4138 -500 3200 -500 
Q 2263 -500 1766 -200 
Q 1269 100 1269 628 
Q 1269 1103 1700 1400 
Q 2131 1697 2963 1734 
z
M 3200 1344 
Q 2481 1344 2117 1155 
Q 1753 966 1753 628 
Q 1753 284 2123 90 
Q 2494 -103 3200 -103 
Q 3903 -103 4275 90 
Q 4647 284 4647 628 
Q 4647 966 4281 1155 
Q 3916 1344 3200 1344 
z
" transform="scale(0.015625)"/>
       <path id="MalgunGothic-7d2" d="M 5125 3438 
L 5125 1984 
L 4659 1984 
L 4659 5466 
L 5125 5466 
L 5125 3859 
L 6034 3859 
L 6034 3438 
L 5125 3438 
z
M 2150 2400 
Q 1475 2400 1048 2811 
Q 622 3222 622 3847 
Q 622 4469 1045 4878 
Q 1469 5288 2150 5288 
Q 2831 5288 3259 4880 
Q 3688 4472 3688 3847 
Q 3688 3216 3258 2808 
Q 2828 2400 2150 2400 
z
M 2150 4891 
Q 1675 4891 1381 4598 
Q 1088 4306 1088 3847 
Q 1088 3381 1381 3089 
Q 1675 2797 2150 2797 
Q 2628 2797 2923 3090 
Q 3219 3384 3219 3847 
Q 3219 4300 2923 4595 
Q 2628 4891 2150 4891 
z
M 3272 -494 
Q 2334 -494 1832 -170 
Q 1331 153 1331 703 
Q 1331 1250 1831 1572 
Q 2331 1894 3272 1894 
Q 4222 1894 4719 1572 
Q 5216 1250 5216 703 
Q 5216 156 4717 -169 
Q 4219 -494 3272 -494 
z
M 3272 1497 
Q 2569 1497 2200 1283 
Q 1831 1069 1831 703 
Q 1831 334 2198 118 
Q 2566 -97 3272 -97 
Q 3981 -97 4351 120 
Q 4722 338 4722 703 
Q 4722 1066 4350 1281 
Q 3978 1497 3272 1497 
z
" transform="scale(0.015625)"/>
       <path id="MalgunGothic-285" d="M 5119 3584 
L 5119 2375 
L 4653 2375 
L 4653 5466 
L 5119 5466 
L 5119 4000 
L 6028 4000 
L 6028 3584 
L 5119 3584 
z
M 3488 5203 
Q 3488 4372 2816 3540 
Q 2144 2709 781 2181 
L 459 2572 
Q 1553 2903 2193 3515 
Q 2834 4128 2963 4794 
L 831 4794 
L 831 5203 
L 3488 5203 
z
M 5575 -447 
Q 5266 -256 4970 84 
Q 4675 425 4575 709 
Q 4456 397 4148 50 
Q 3841 -297 3541 -447 
L 3250 -134 
Q 3756 109 4061 581 
Q 4366 1053 4366 1606 
L 4366 2022 
L 4788 2022 
L 4788 1606 
Q 4788 1066 5089 586 
Q 5391 106 5881 -134 
L 5575 -447 
z
M 1216 -441 
L 1216 1984 
L 1656 1984 
L 1656 1088 
L 2700 1088 
L 2700 1984 
L 3144 1984 
L 3144 -441 
L 1216 -441 
z
M 2700 703 
L 1656 703 
L 1656 -50 
L 2700 -50 
L 2700 703 
z
" transform="scale(0.015625)"/>
      </defs>
      <use xlink:href="#MalgunGothic-8f8"/>
      <use xlink:href="#MalgunGothic-7d2" transform="translate(100 0)"/>
      <use xlink:href="#MalgunGothic-285" transform="translate(200 0)"/>
     </g>
    </g>
   </g>
  </g>
 </g>
 <defs>
  <clipPath id="p041778dcc2">
   <rect x="42.521953" y="37.722148" width="558.678047" height="245.335898"/>
  </clipPath>
 </defs>
</svg>
